<?xml version="1.0" encoding="utf-8"?>
<!-- Generator: Adobe Illustrator 21.0.0, SVG Export Plug-In . SVG Version: 6.00 Build 0)  -->
<svg version="1.1" id="Layer_1" xmlns="http://www.w3.org/2000/svg" xmlns:xlink="http://www.w3.org/1999/xlink" x="0px" y="0px"
	 viewBox="0 0 512 512" style="enable-background:new 0 0 512 512;" xml:space="preserve">
<style type="text/css">
	.st0{fill:#141F38;}
</style>
<title>solar_system_style_1</title>
<path class="st0" d="M256,135.3c-17.5,0-34.9,3.8-50.8,11.2c6.6,19.1-3.5,39.9-22.6,46.5c-9.3,3.2-19.6,2.6-28.4-1.9
	c-35.8,56.2-19.3,130.8,36.9,166.7s130.8,19.3,166.7-36.9s19.3-130.8-36.9-166.7C301.5,141.9,279,135.3,256,135.3z M256,317
	c-33.7,0-61-27.3-61-61s27.3-61,61-61s61,27.3,61,61S289.7,317,256,317z M281,231c13.8,13.8,13.8,36.2,0,50
	c-13.8,13.8-36.2,13.8-50,0c-13.8-13.8-13.8-36.2,0-50c6.6-6.6,15.6-10.4,25-10.4C265.4,220.6,274.4,224.3,281,231z M460.8,45.7
	c0-10.1,8.2-18.3,18.3-18.3s18.3,8.2,18.3,18.3S489.2,64,479.1,64C469,64,460.8,55.8,460.8,45.7C460.8,45.7,460.8,45.7,460.8,45.7z
	 M64,473c0,6.7-5.5,12.2-12.2,12.2c-6.7,0-12.2-5.5-12.2-12.2c0-6.7,5.5-12.2,12.2-12.2C58.5,460.8,64,466.3,64,473
	C64,473,64,473,64,473z M159.7,158.5c0-6.1,4.9-11,11-11s11,4.9,11,11s-4.9,11-11,11S159.7,164.6,159.7,158.5
	C159.7,158.5,159.7,158.5,159.7,158.5L159.7,158.5z M474.2,256c0,6.1-4.9,11-11,11s-11-4.9-11-11s4.9-11,11-11
	S474.2,249.9,474.2,256z M447,223.2c-15.6-91.3-95.3-161-191-161c-106.9,0-193.8,87-193.8,193.8s87,193.8,193.8,193.8
	c95.7,0,175.4-69.7,191-161c-18.1-9-25.5-30.9-16.6-49c3.6-7.2,9.4-13,16.6-16.6V223.2z M256,402.3c-80.8,0-146.3-65.5-146.3-146.3
	c0-30.2,9.4-59.7,26.8-84.4c-7.2-18.9,2.2-40,21-47.2c10-3.8,21.2-3.1,30.6,2c71.6-37.5,160-9.8,197.5,61.8s9.8,160-61.8,197.5
	C302.9,396.6,279.6,402.3,256,402.3z M256,0C114.8,0,0,114.8,0,256s114.8,256,256,256s256-114.8,256-256S397.2,0,256,0z
	 M472.6,291.4C455.7,395.7,365.1,475.4,256,475.4c-121.2,0-219.4-98.2-219.4-219.4S134.8,36.6,256,36.6
	c109.1,0,199.7,79.7,216.6,184.1c19.5,5.2,31.2,25.2,26,44.7C495.2,278.1,485.3,288,472.6,291.4L472.6,291.4z"/>
</svg>
